<?xml version="1.0" standalone="no"?>
<!DOCTYPE svg PUBLIC "-//W3C//DTD SVG 20010904//EN"
 "http://www.w3.org/TR/2001/REC-SVG-20010904/DTD/svg10.dtd">
<svg version="1.0" xmlns="http://www.w3.org/2000/svg"
 width="500.000000pt" height="500.000000pt" viewBox="0 0 500.000000 500.000000"
 preserveAspectRatio="xMidYMid meet">

<g transform="translate(0.000000,500.000000) scale(0.100000,-0.100000)"
fill="#00FF00" stroke="none">
<path d="M2230 4450 c-25 -4 9 -5 75 -2 66 3 122 6 124 8 7 7 -152 1 -199 -6z"/>
<path d="M2619 4449 c174 -16 403 -68 549 -126 91 -37 70 -38 -34 -3 -341 116
-809 127 -1174 28 -111 -30 -290 -97 -374 -140 -168 -86 -343 -213 -482 -352
-165 -164 -254 -285 -356 -481 -32 -60 -57 -105 -58 -100 0 21 110 227 173
322 35 54 97 136 137 183 40 47 56 69 36 50 -104 -97 -247 -302 -331 -475
-294 -603 -265 -1271 80 -1881 207 -365 502 -643 870 -820 248 -119 507 -185
715 -183 l95 1 -122 14 c-68 7 -171 25 -230 39 -132 31 -277 75 -271 81 3 2
47 -7 99 -21 505 -134 1026 -84 1472 140 325 164 613 433 789 737 28 49 53 87
55 84 3 -2 -21 -49 -52 -103 -59 -104 -141 -219 -227 -318 l-51 -60 52 50
c154 148 320 427 411 690 216 630 94 1316 -336 1890 -251 335 -635 594 -1044
704 -156 41 -287 61 -395 60 l-90 -2 94 -8z m113 -95 c534 -73 1024 -380 1326
-830 77 -114 135 -222 184 -339 21 -49 38 -85 38 -79 0 16 -68 180 -111 265
-71 142 -189 309 -307 434 -87 91 -77 95 14 5 362 -358 544 -797 544 -1315 0
-318 -66 -599 -208 -882 -49 -100 -118 -213 -128 -213 -3 0 4 15 15 33 59 88
201 401 188 413 -2 3 -14 -24 -27 -58 -33 -91 -114 -250 -178 -348 -192 -296
-467 -539 -785 -694 -286 -139 -545 -193 -870 -183 -275 8 -464 56 -722 182
-229 112 -342 193 -526 375 -178 177 -311 368 -400 572 -45 104 -62 127 -29
39 91 -238 291 -530 486 -710 50 -45 56 -54 24 -30 -65 47 -256 242 -322 329
-189 250 -310 561 -349 900 -15 130 -6 421 16 542 36 201 94 376 185 559 53
107 169 294 177 286 2 -2 -17 -35 -42 -73 -25 -38 -70 -117 -100 -175 -53
-103 -120 -268 -112 -276 2 -2 14 25 27 59 33 91 114 250 177 348 197 303 450
526 778 685 337 164 698 226 1037 179z m-1219 -238 c-152 -94 -419 -317 -407
-339 4 -7 3 -9 -1 -4 -5 4 -21 -5 -37 -20 -29 -27 -38 -50 -15 -37 6 4 9 4 5
0 -3 -4 -10 -8 -15 -7 -11 0 -53 -40 -53 -52 0 -5 8 -3 17 4 10 8 7 0 -7 -18
-22 -30 -44 -40 -24 -10 5 7 -3 -1 -18 -18 -53 -58 -143 -201 -205 -323 -106
-212 -181 -477 -203 -718 -9 -98 -9 -98 -5 41 5 214 43 376 137 595 164 379
448 696 814 910 93 54 106 51 17 -4z m2944 -1803 c-10 -242 -58 -427 -171
-658 -132 -268 -299 -480 -536 -676 -87 -72 -300 -211 -300 -196 0 2 33 26 73
52 39 27 113 81 163 121 118 95 316 294 309 312 -2 7 -1 10 4 7 19 -11 155
184 235 337 123 235 216 576 216 793 0 30 3 55 6 55 4 0 4 -66 1 -147z m-164
-698 c-3 -9 -8 -14 -10 -11 -3 3 -2 9 2 15 9 16 15 13 8 -4z m-22 -48 c-10 -9
-11 -8 -5 6 3 10 9 15 12 12 3 -3 0 -11 -7 -18z m-2451 -947 c8 -5 11 -10 5
-10 -5 0 -17 5 -25 10 -8 5 -10 10 -5 10 6 0 17 -5 25 -10z"/>
<path d="M1741 3582 c-68 -36 -201 -134 -201 -148 0 -14 110 -107 179 -152
100 -64 243 -99 356 -87 36 3 65 10 65 14 0 4 -17 13 -37 20 -82 30 -169 107
-199 179 -8 20 -22 70 -30 110 -8 41 -17 78 -20 83 -10 17 -62 9 -113 -19z
m85 -49 c25 -114 45 -159 101 -232 39 -51 32 -62 -31 -50 -63 12 -143 50 -212
103 -93 69 -93 83 -6 143 83 56 95 62 119 62 17 1 24 -6 29 -26z"/>
<path d="M2720 3476 c-137 -37 -254 -74 -273 -88 -9 -7 -34 -62 -55 -123 -45
-129 -49 -132 -203 -165 -264 -55 -475 5 -676 193 -32 31 -58 47 -67 44 -24
-10 -81 -94 -139 -207 -86 -166 -159 -375 -173 -492 -8 -71 -2 -82 120 -204
141 -140 150 -145 721 -449 127 -67 298 -157 380 -200 83 -43 155 -81 160 -85
6 -4 101 -53 212 -110 241 -121 276 -130 462 -111 172 17 407 58 455 80 56 24
113 75 137 122 21 42 26 171 9 243 -17 75 -33 86 -218 152 -196 70 -225 86
-287 157 l-45 51 -66 -33 c-73 -37 -104 -36 -122 3 -15 34 10 64 93 111 l64
36 -16 34 -16 34 -40 -21 c-22 -11 -58 -26 -79 -34 -39 -13 -41 -13 -69 16
-26 26 -28 32 -17 50 9 15 133 86 165 96 9 2 -24 64 -33 64 -7 0 -41 -9 -76
-20 -103 -32 -138 -24 -138 32 0 33 30 55 117 84 32 10 60 19 61 21 7 3 -19
73 -27 73 -4 0 -32 -9 -64 -20 -73 -26 -119 -26 -142 0 -27 30 -7 66 53 91 26
11 61 26 79 34 l32 14 -15 43 c-20 56 -20 224 0 341 16 97 12 125 -26 151 -32
23 -134 19 -238 -8z m215 -36 c18 -20 18 -27 4 -128 -16 -122 -17 -179 -6
-274 l8 -68 -43 -20 c-119 -55 -140 -139 -50 -195 33 -21 34 -25 11 -82 -12
-29 -10 -34 14 -66 15 -19 40 -41 57 -49 35 -15 35 -15 16 -60 -13 -30 -13
-38 1 -67 9 -18 32 -43 50 -55 26 -16 32 -26 27 -41 -19 -62 -17 -84 14 -115
35 -34 72 -39 129 -15 50 21 53 20 113 -31 63 -54 121 -84 215 -113 39 -12
107 -36 153 -53 l82 -31 15 -50 c15 -52 20 -138 8 -150 -3 -4 -15 1 -26 10
-17 16 -43 18 -236 17 -184 -1 -232 -5 -323 -24 -106 -23 -108 -23 -150 -5
-30 13 -93 70 -203 181 -94 94 -178 170 -202 183 -28 14 -83 26 -164 35 -112
13 -130 19 -225 65 -228 111 -290 167 -431 392 -75 120 -159 226 -215 272 -64
52 -148 105 -186 118 -30 10 -38 8 -64 -11 -16 -12 -32 -20 -34 -17 -6 6 37
111 67 163 35 60 79 114 94 114 7 0 46 -25 87 -56 168 -128 333 -182 523 -171
105 6 242 40 290 71 26 17 53 68 90 170 24 67 41 81 137 111 201 64 322 79
353 45z m-1344 -610 c76 -76 112 -123 181 -236 48 -77 107 -163 133 -192 54
-60 145 -122 270 -184 117 -58 172 -75 270 -83 152 -12 181 -29 301 -167 113
-131 175 -186 271 -238 l42 -23 91 27 c78 23 112 28 262 32 95 2 203 6 239 9
64 3 67 3 61 -17 -3 -12 -24 -40 -46 -63 -37 -38 -50 -45 -131 -63 -49 -12
-155 -31 -235 -42 -189 -28 -291 -24 -381 16 -102 45 -1115 575 -1154 604 -5
4 -35 21 -65 37 -267 145 -335 193 -426 302 -41 49 -45 58 -39 90 11 60 72
263 94 314 l21 48 72 -38 c53 -27 99 -64 169 -133z"/>
<path d="M1834 2861 c5 -8 56 -3 56 5 0 2 -14 4 -31 4 -16 0 -28 -4 -25 -9z"/>
<path d="M2460 2866 c0 -8 51 -13 56 -5 3 5 -9 9 -25 9 -17 0 -31 -2 -31 -4z"/>
<path d="M2635 2860 c4 -6 11 -8 16 -5 14 9 11 15 -7 15 -8 0 -12 -5 -9 -10z"/>
<path d="M2535 2829 c-4 -6 -17 -14 -29 -19 -20 -8 -20 -9 -1 -9 11 -1 26 8
33 19 7 11 10 20 8 20 -3 0 -8 -5 -11 -11z"/>
<path d="M2619 2823 c-13 -16 -12 -17 4 -4 16 13 21 21 13 21 -2 0 -10 -8 -17
-17z"/>
<path d="M2063 2803 c48 -2 126 -2 175 0 48 1 8 3 -88 3 -96 0 -136 -2 -87 -3z"/>
<path d="M1965 2770 c3 -5 12 -7 20 -3 21 7 19 13 -6 13 -11 0 -18 -4 -14 -10z"/>
<path d="M2254 2773 c15 -4 16 -7 5 -15 -12 -8 -12 -9 0 -6 25 7 24 28 -1 27
-19 -1 -20 -2 -4 -6z"/>
<path d="M2035 2710 c3 -5 8 -10 11 -10 2 0 4 5 4 10 0 6 -5 10 -11 10 -5 0
-7 -4 -4 -10z"/>
<path d="M2113 2693 c20 -2 54 -2 75 0 20 2 3 4 -38 4 -41 0 -58 -2 -37 -4z"/>
<path d="M2094 2661 c3 -5 15 -7 26 -4 28 7 25 13 -6 13 -14 0 -23 -4 -20 -9z"/>
<path d="M2190 2661 c0 -6 -17 -12 -37 -14 l-38 -4 41 -1 c29 -1 44 3 48 13 3
8 1 15 -4 15 -6 0 -10 -4 -10 -9z"/>
<path d="M2269 2603 c-13 -16 -12 -17 4 -4 9 7 17 15 17 17 0 8 -8 3 -21 -13z"/>
<path d="M2417 2549 c7 -7 15 -10 18 -7 3 3 -2 9 -12 12 -14 6 -15 5 -6 -5z"/>
<path d="M4301 1904 c0 -11 3 -14 6 -6 3 7 2 16 -1 19 -3 4 -6 -2 -5 -13z"/>
<path d="M2148 4433 c7 -3 16 -2 19 1 4 3 -2 6 -13 5 -11 0 -14 -3 -6 -6z"/>
<path d="M2098 4423 c7 -3 16 -2 19 1 4 3 -2 6 -13 5 -11 0 -14 -3 -6 -6z"/>
<path d="M1144 3938 l-19 -23 23 19 c12 11 22 21 22 23 0 8 -8 2 -26 -19z"/>
<path d="M2848 493 c7 -3 16 -2 19 1 4 3 -2 6 -13 5 -11 0 -14 -3 -6 -6z"/>
<path d="M2778 483 c7 -3 16 -2 19 1 4 3 -2 6 -13 5 -11 0 -14 -3 -6 -6z"/>
<path d="M2628 473 c23 -2 59 -2 80 0 20 2 1 4 -43 4 -44 0 -61 -2 -37 -4z"/>
</g>
</svg>
